<?xml version="1.0" encoding="UTF-8" standalone="no"?>
<svg
   xmlns:dc="http://purl.org/dc/elements/1.1/"
   xmlns:cc="http://creativecommons.org/ns#"
   xmlns:rdf="http://www.w3.org/1999/02/22-rdf-syntax-ns#"
   xmlns:svg="http://www.w3.org/2000/svg"
   xmlns="http://www.w3.org/2000/svg"
   xmlns:sodipodi="http://sodipodi.sourceforge.net/DTD/sodipodi-0.dtd"
   xmlns:inkscape="http://www.inkscape.org/namespaces/inkscape"
   width="900mm"
   height="930mm"
   viewBox="0 0 900 930"
   version="1.1"
   id="svg251"
   inkscape:version="1.0.2-2 (e86c870879, 2021-01-15)"
   sodipodi:docname="凤凰街道.svg"
   inkscape:export-filename="C:\Users\Kilimanjaro\Desktop\凤凰街道.png"
   inkscape:export-xdpi="96"
   inkscape:export-ydpi="96">
  <defs
     id="defs245" />
  <sodipodi:namedview
     id="base"
     pagecolor="#ffffff"
     bordercolor="#666666"
     borderopacity="0"
     inkscape:pageopacity="0.0"
     inkscape:pageshadow="2"
     inkscape:zoom="0.24748737"
     inkscape:cx="507.26126"
     inkscape:cy="860.27251"
     inkscape:document-units="mm"
     inkscape:current-layer="layer1"
     inkscape:document-rotation="0"
     showgrid="false"
     inkscape:pagecheckerboard="true"
     inkscape:window-width="1920"
     inkscape:window-height="1009"
     inkscape:window-x="-8"
     inkscape:window-y="-8"
     inkscape:window-maximized="1" />
  <metadata
     id="metadata248">
    <rdf:RDF>
      <cc:Work
         rdf:about="">
        <dc:format>image/svg+xml</dc:format>
        <dc:type
           rdf:resource="http://purl.org/dc/dcmitype/StillImage" />
        <dc:title />
      </cc:Work>
    </rdf:RDF>
  </metadata>
  <g
     inkscape:label="图层 1"
     inkscape:groupmode="layer"
     id="layer1">
    <path
       style="fill:none;stroke:#4bc0dc;stroke-width:1.66927px;stroke-linecap:butt;stroke-linejoin:miter;stroke-opacity:1"
       d="m -111.51175,214.64658 5.87625,-2.13204 28.881644,-0.39993 4.000926,0.7996 0.625118,1.06602 h 5.50132 l 1.750389,2.7983 4.250925,-1.06606 3.12575,-1.33261 5.501321,0.13364 5.376195,2.26532 3.625838,0.66622 6.751558,-5.06362 2.75066,-0.93274 3.250717,0.26629 2.12551,5.99637 5.001168,3.73107 h 3.125719 l 3.00072,3.99767 1.375267,3.198 3.875898,3.33134 4.860115,-3.24669 3.0059034,-3.95737 1.6361674,-2.52338 1.0002401,-4.93041 3.1257185,-1.59903 2.371493,0.38429 2.1295239,0.54842 4.5010807,-1.86552 5.923407,-0.002 6.188669,0.3771 7.017325,-0.10801 7.128069,1.42738 5.249775,0.83794 6.626527,5.33014 1.2503,2.53178 6.751557,0.39989 2.000448,3.06482 v 2.39857 l -1.625358,4.66385 1.87545,7.46219 2.375507,1.86552 3.875898,-1.9988 2.739757,-2.05747 2.652273,-7.16109 3.889963,-2.44981 6.22157,-5.12152 c 0,0 -0.679448,-1.63244 1.500392,-0.7995 2.179839,0.83291 6.777094,5.35567 6.777094,5.35567 l 9.371277,5.65345 6.895895,1.5076 2.08651,6.53849 -1.75039,3.73108 -0.4999,5.99637 3.8759,2.26532 7.074,0.31397 2.92834,-1.24639 7.15026,11.42261 3.35213,3.50179 1.42198,5.5437 1.20362,6.18251 1.75045,2.7983 0.12516,6.79596 4.62605,9.46099 3.25071,1.33254 4.42726,6.59665 4.77408,2.63826 4.92696,-0.30684 4.37605,-9.86068 2.50054,-3.5979 4.99415,-0.74491 7.13363,0.6116 5.62635,4.53058 0.4999,3.99756 2.47671,4.80531 1.39919,3.45641 1.2503,9.46099 5.50132,1.86552 6.37643,-3.33128 0.75015,-2.26532 7.62683,3.06482 3.26501,1.31717 5.12762,4.71118 3.5363,4.52276 5.9503,3.84022 c 0,0 6.78057,1.62482 7.48789,1.62482 0.70733,0 6.36528,0.75377 7.07261,0.75377 0.70732,0 6.9446,0.15309 6.9446,0.15309 0,0 10.20688,1.54279 10.91389,1.54279 0.70732,0 0.73988,-2.00626 3.46424,-0.34388 2.72437,1.66271 3.25502,3.35875 5.73033,4.11255 2.47563,0.75383 10.52357,4.14914 10.52357,4.14914 l -1.0003,1.06602 -15.5036,0.66626 1.12515,7.99516 -0.74999,28.5162 21.37994,30.38169 9.37694,11.45978 30.13204,47.70463 -0.62515,9.72751 2.37576,25.05155 16.75389,-1.0659 7.5018,-3.9976 14.25298,-18.12237 6.2515,-3.1981 13.7533,0.53279 9.50209,-2.66503 12.753,-7.7287 12.75299,-9.06122 12.0027,-6.39617 12.00269,-24.25205 1.2503,-6.9292 1.18266,-4.49778 3.71329,-1.8845 3.88996,-0.75376 4.59729,-1.8845 7.95692,-0.75377 h 7.77992 l 5.83495,-1.31915 5.30429,-0.56534 3.7509,-2.73253 10.21795,1.79024 4.28534,1.40786 8.97618,17.06008 2.52683,4.79343 4.75089,3.46462 0.24968,8.26169 4.50152,5.5966 6.50119,2.66508 3.00059,-4.26412 1.25061,-7.99523 3.75091,-4.53054 6.75117,2.93154 4.50089,3.9976 2.50092,6.92915 3.00059,6.1297 5.00152,5.59657 19.61037,8.25948 -1.85649,-1.59676 10.34374,1.21986 3.00565,2.44981 6.9051,14.4527 17.00389,8.26172 5.7515,0.7995 1.7503,-4.26412 6.50181,-5.06362 7.50148,-3.99757 6.50182,-2.39853 18.00388,1.33251 7.00149,-3.73108 6.18291,-4.44922 6.71926,-4.52273 8.48756,-6.03039 7.36717,-6.31813 17.74092,-21.85504 -0.35461,-4.33424 -7.33777,-13.75676 -2.92284,-10.69016 -9.50178,-19.45495 -8.7521,-21.32056 -3.04705,-5.53997 -12.08139,-12.71569 -5.60043,-4.52736 -6.80807,-9.04552 -21.57147,-46.35833 -8.48725,-16.48922 -2.29864,1.97869 -16.09019,2.82674 -12.53618,1.52385 -6.47179,-1.42959 -16.00169,-1.50763 -11.40504,-4.24009 -35.00967,-22.89647 -11.13955,-6.03039 -27.14188,-19.50438 -23.42827,-13.75677 -21.21812,-7.91479 -21.83696,-6.9726 -16.44416,-1.5076 -8.31026,-3.76899 -7.33809,-0.94222 -15.29468,-5.37075 -27.93706,-17.14879 h -12.5542 l -22.36729,-14.79324 -6.71894,-1.97872 -17.50515,-16.0181 -14.95177,-14.52243 -11.87785,-8.79476 -7.7518,-3.5978 -5.62635,-5.86319 -13.01405,-13.485923 -1.73924,-3.570424 1.47375,-3.213732 1.77685,-2.649389 7.62695,-10.127306 7.25149,-10.260486 2.97152,-5.230079 -3.6248,-4.334278 1.32615,-2.072979 -0.35366,-8.857071 -2.03347,-1.60179 -1.41465,-10.458893 -4.4203,-7.726373 -16.70933,-15.2642953 -11.31623,-8.3859789 -6.2771,-1.884497 h -4.50901 l -22.89784,-18.8448398 -3.27113,-3.768961 -19.14786,-2.748414 -16.59755,-4.597264 -7.50173,5.696565 -6.00138,1.332543 -3.37581,-1.332543 -3.8759,-0.266295 c 0,0 -3.12575,0.266295 -3.62581,0.532784 -0.49993,0.266295 -3.75086,1.332544 -3.75086,1.332544 l -2.00048,-0.132986 -2.87566,-6.5e-5 -1.12527,-2.931576 -2.62557,-1.732245 -3.8759,-0.666321 -1.12527,-1.465821 -0.750179,-3.198001 -1.750451,-2.132076 c 0,0 -0.375217,-1.332544 -0.875179,-1.599065 -0.499899,-0.266295 -4.751108,-3.064822 -4.751108,-3.064822 l -6.626496,-1.066022 c 0,0 -4.876138,-0.399896 -4.876138,-0.399896 0,0 -3.625807,-0.266294 -4.125959,-0.266294 -0.499899,0 -4.375987,1.066119 -4.375987,1.066119 l -0.750148,1.73218 c 0,0 0,1.599098 -0.750244,2.265321 -0.750148,0.666256 -1.875418,2.398663 -1.875418,2.398663 v 0 l -2.625599,2.398501 c 0,0 -0.750148,2.7983 -0.750148,3.5978 0,0.7995 0.124524,1.599 -0.750212,2.798299 -0.87521,1.199364 -1.125206,4.797164 -1.125206,4.797164 l -3.625902,0.133634 -1.875419,-2.531843 -3.125687,-1.066022 -2.875658,-2.665022 c 0,0 0.75018,-1.066087 -1.12527,-1.599066 -1.875419,-0.532784 -2.875659,-0.799532 -4.000929,-1.066054 -1.12527,-0.266295 -0.625118,-0.266295 -2.000448,-0.266295 -1.375362,0 -3.12575,-0.266294 -3.12575,-0.266294 l -3.000689,3.198163 c 0,0 -1.00024,2.531778 -1.00024,3.864321 0,1.332479 1.00024,6.529344 1.00024,6.529344 l 0.750212,5.596664 1.250237,3.997599 c 0,0 0.499898,4.2641203 0.750243,5.0636205 0.249997,0.7995003 0.625118,1.7323425 0.625118,3.0648213 0,1.33254368 1.625359,4.2640879 1.625359,4.2640879 0,0 0.625245,1.5990978 0.375216,2.9315766 -0.249997,1.3325437 -6.3e-5,3.4645876 -6.3e-5,3.4645876 l -1.37533,2.3985981 -4.250894,2.398501 c 0,0 -4.751203,0.932777 -5.251292,1.199299 -0.499898,0.266294 -4.000802,1.332543 -4.000802,1.332543 l -4.751235,1.9988 c 0,0 -1.250047,-0.399929 -1.125143,1.066022 0.124524,1.46582 1.00024,9.594262 1.00024,9.594262 0,0 -3.50084,0.399896 -3.50084,0.399896 l -1.750515,0.666321 -2.500442,4.3973 -0.5005,3.064821 -0.125156,3.064886 -4.000992,0.266295 -1.8753551,-1.732278 V 36.888666 L 4.8886801,34.62341 c 0,0 -3.7508054,0.399928 -3.7508054,0.399928 0,0 -0.62518159,-1.865554 -0.50049924,-2.398598 0.12515642,-0.532784 0.12515642,-0.133633 -0.12452433,-2.3985 -0.2499968,-2.265321 0.37521644,-5.196866 0.37521644,-5.196866 l 0.24999683,-3.198098 -2.6255985,-1.199299 -1.8755449,2.531843 -2.7505021,2.931576 -0.5004993,2.7983 c 0,0 0.3752165,1.865522 -0.4998988,2.531843 -0.87521,0.666223 -3.5008088,1.599 -3.6258388,2.665022 -0.125156,1.066022 -0.375216,1.732278 -1.00024,2.665023 -0.625118,0.932842 -2.750628,2.398598 -2.750628,2.398598 l -1.875355,1.998799 -10.002274,3.064821 -2.875659,5.863153 -4.126085,3.331279 -4.125895,3.864418 -3.875899,3.331343 -4.375924,7.328845 -8.502008,2.798364 -1.500455,2.398534 -0.125157,3.464588 -0.375216,4.530642 -0.375248,0.932744 -2.875659,4.930376 -6.626495,7.32891 -1.875387,2.398533 1.87545,7.462189 2.250477,3.86432 2.375507,1.73234 2.875658,2.53178 c 0,0 2.875659,1.59906 3.375811,1.73231 0.499898,0.13298 5.001231,1.33251 5.001231,1.33251 l 3.500714,0.3999 1.625485,2.53177 -1.87545,4.13085 -3.750837,0.39993 -0.625245,4.93034 0.625119,3.73114 -0.750149,1.46572 -4.00096,-1.33247 -2.125479,-1.73235 -3.750742,-1.99876 -5.126198,1.73224 -4.000866,7.46219 -3.250777,1.59903 -5.876347,5.86319 -2.000606,4.66388 -3.500651,7.1956 -5.251228,5.33014 -0.375248,3.99757 7.751734,1.5991 -1.500329,4.13084 -0.625118,3.5978 -2.000575,1.86559 -1.000114,5.46335 -1.750578,0.53279 c 0,0 -2.500568,1.59906 -3.500777,1.99876 -1.00024,0.39993 -5.25126,1.46582 -5.25126,1.46582 l -4.62592,-0.53278 -4.87614,5.46332 -2.00045,7.06249 z"
       id="path1966"
       inkscape:export-xdpi="95.973488"
       inkscape:export-ydpi="95.973488" />
    <path
       style="fill:none;stroke:#4bc0dc;stroke-width:1.66927px;stroke-linecap:butt;stroke-linejoin:miter;stroke-opacity:1"
       d="m 346.0492,170.68062 7.42626,14.22798 c 0,0 0.884,9.04552 1.23766,9.61087 0.35366,0.56535 2.47532,5.74772 2.47532,5.74772 0,0 3.00596,12.53177 3.09446,12.9087 0.0885,0.37713 0.88399,7.4437 0.88399,7.4437 0,0 1.85649,2.44985 2.91748,2.63827 1.06098,0.18812 2.47563,0.6596 3.18264,0.6596 0.70732,0 5.65827,-0.28283 6.80743,-0.28283 1.14948,0 5.83526,2.35558 7.33809,3.10935 1.50282,0.7538 11.31622,7.53796 11.31622,7.53796 0,0 0.97249,4.33431 1.50314,5.5592 0.53034,1.22495 3.97815,6.31306 4.86246,7.91485 0.88399,1.60182 12.64238,14.51053 12.64238,14.51053 l 2.82897,6.12458 v 5.27653 l 2.7408,3.86322 -0.88399,7.63218 c 0,0 -4.24363,7.34944 -4.68578,8.76281 -0.44184,1.41341 -1.59132,6.78416 -2.47564,7.91489 -0.88399,1.13063 -4.77395,5.46494 -4.77395,5.46494 0,0 -2.82898,-2.16714 -3.35932,-3.39203 -0.53065,-1.22495 -2.6523,-4.33434 -3.89028,-5.8419 -1.23765,-1.50763 -6.71894,-4.71125 -6.71894,-4.71125 0,0 -2.03347,-0.28283 -2.56381,0.37713 -0.53065,0.65954 -2.12197,3.10939 -2.21015,4.24008 -0.0885,1.1307 0.0885,5.18234 0.26549,6.50149 0.17699,1.31911 -0.35398,6.40722 -0.35398,6.40722 0,0 -2.91747,3.48629 -3.5363,3.48629 -0.61883,0 -2.29864,0.28284 -2.29864,0.28284 l -0.79551,5.18236 c 0,0 -0.53065,6.03033 -1.14948,6.59568 -0.61882,0.56535 -2.74048,3.58054 -2.74048,3.58054 0,0 -0.35398,2.07291 -2.38714,2.82668 -2.03347,0.7538 -1.59132,2.07298 -4.24362,1.41337 -2.65231,-0.65957 -4.68578,-0.47089 -6.45377,-1.60179 -1.76831,-1.13069 -1.59132,-0.94228 -3.09446,-1.50756 -1.50283,-0.56535 -2.74049,-0.75387 -2.74049,-0.75387 l -3.09446,0.0944 c 0,0 3.80147,6.21874 4.33212,6.6899 0.53033,0.47093 0.70732,2.07292 2.29864,3.29781 1.59132,1.22495 3.00597,3.20361 3.00597,3.20361 l 0.97249,4.89969 -0.35398,2.92094 c 0,0 -1.32615,1.1307 -4.42029,1.1307 -3.09447,0 -6.45378,0.18812 -8.57575,0.18812 -2.12165,0 -3.80147,0 -6.2771,0 -2.47531,0 -7.69143,0 -9.10608,0 -1.41433,0 -3.4478,0 -3.4478,0 l -7.24959,-4.71118 -4.06696,-2.26142 c -1.14916,-0.75377 -6.36528,-2.82669 -6.36528,-2.82669 l -2.74079,-2.16717 c -1.23766,-0.28283 -4.4203,-0.56535 -4.4203,-0.56535 -1.23766,0.0944 -7.69143,2.2614 -7.69143,2.2614 -1.50314,0.7538 -7.42658,3.58048 -7.42658,3.58048 -1.59132,0.56535 -5.21612,1.60182 -5.21612,1.60182 l -9.54539,2.171"
       id="path1968"
       inkscape:export-xdpi="95.973488"
       inkscape:export-ydpi="95.973488" />
    <path
       style="fill:none;stroke:#4bc0dc;stroke-width:1.66927px;stroke-linecap:butt;stroke-linejoin:miter;stroke-opacity:1"
       d="m 320.23379,345.84357 -1.67981,-4.05164 c 0,0 1.06066,-1.13069 1.32615,-2.92093 0.26548,-1.79024 0.26548,-4.1459 -0.44184,-4.99392 -0.70733,-0.84799 -4.42062,-1.69602 -4.59729,-2.26136 -0.17699,-0.56535 -0.0885,-1.50763 -1.32615,-2.73252 -1.23766,-1.22493 -3.71329,-1.97873 -4.86245,-2.07292 -1.14948,-0.0944 -3.97846,-0.18812 -4.42062,-0.28284 -0.44184,-0.0944 -3.09414,-1.97872 -4.24362,-3.20361 -1.14917,-1.22495 -3.44781,-4.05163 -5.39279,-5.55926 -1.94498,-1.50757 -1.94498,-1.60183 -3.18264,-2.35559 -1.23797,-0.7538 -9.83363,-9.48411 -9.83363,-9.48411 0,0 -5.75151,-3.73115 -7.00181,-4.26412 -1.2503,-0.53279 -4.75088,-2.39857 -7.75179,-3.73105 -3.0006,-1.33254 -12.50269,-3.73114 -12.50269,-3.73114 0,0 -0.49999,1.06602 -2.00061,-0.2663 -1.50029,-1.33247 -8.25179,-5.59659 -9.25209,-6.66262 -1.0003,-1.06602 -1.2503,2.3986 -3.25059,-2.13204 -2.00061,-4.53064 -3.25091,-6.39617 -4.50121,-7.99517 -1.2503,-1.59909 -3.00059,-2.13207 -4.50089,-4.79716 -1.50061,-2.66505 -2.0006,-3.9976 -4.00089,-5.86312 -2.00061,-1.86552 -0.87547,-8.12844 -0.87547,-8.12844 0,0 0.24968,-4.66389 0.24968,-5.46339 0,-0.7995 -1.2503,-4.93034 -0.37515,-6.52938 0.87515,-1.59906 1.12514,-4.26408 1.12514,-4.9304 0,-0.66626 0.12643,-13.45859 0.12643,-13.45859 0,0 1.0003,-5.06359 1.2503,-6.52934 0.24968,-1.46582 0.49999,-4.53064 0.49999,-4.53064 0,0 -1.12546,-7.46219 -0.49999,-7.86199 0.62515,-0.39989 1.62545,-1.599 1.87545,-3.198 0.24968,-1.59907 1.12514,-15.99043 1.12514,-15.99043 0,0 1.12514,-0.93274 1.37546,-2.53174 0.24968,-1.5991 3.62574,-19.05525 3.62574,-19.05525 0,0 3.37575,0 4.0009,-0.7995 0.62515,-0.7995 0.62515,-3.19807 0.49999,-5.33014 -0.12326,-2.13205 -0.24968,-4.13085 -1.75061,-5.46339 -1.5003,-1.33248 -6.75149,-5.19686 -6.62634,-5.86312 0.12642,-0.66626 1.12515,-1.06602 -1.0003,-5.72984 -2.12545,-4.66392 -2.37544,-5.33015 -3.12575,-6.26292 -0.74999,-0.93285 -2.00029,-1.73235 -3.25059,-2.26532 -1.2503,-0.53279 -2.87575,-1.86553 -3.37606,-0.53279 -0.49968,1.33255 -1.12515,6.12964 -1.5003,6.92921 -0.37515,0.7995 -0.74999,1.46575 -0.74999,1.46575 0,0 -3.00091,1.86553 -3.25091,2.53185 -0.24968,0.66622 -1.75029,2.66502 -2.37544,2.53178 -0.62515,-0.13364 -2.62576,-0.66626 -1.87545,-2.3986 0.7503,-1.73225 3.7509,-4.93035 4.62605,-6.79587 0.87514,-1.86552 -0.12327,-7.99516 -0.12327,-7.99516 0,0 0.12327,0.7995 -0.37546,-0.79954 -0.49968,-1.59906 -3.50091,-5.46338 -3.50091,-5.46338 0,0 -1.24998,-2.39857 -2.12513,-3.06482 -0.87546,-0.66623 -4.75123,-2.39857 -5.50148,-2.93155 -0.75014,-0.53278 -1.37526,-1.33257 -4.00086,-1.86555 -2.62563,-0.53279 -6.87659,-0.79957 -7.87683,-0.79957 -1.00024,0 -2.12548,0.13364 -2.87566,1.1993 -0.75021,1.06602 -2.37557,3.46459 -2.5006,4.53064 -0.12452,1.06603 0,3.46459 0,3.46459 0,0 -1.12527,-0.13363 -4.62604,-0.79956 -3.50081,-0.66626 -5.75135,-0.39993 -7.12668,-0.93278 -1.3753,-0.53279 -1.75039,-0.3999 -3.25072,-0.93275 -1.50036,-0.53278 -1.12527,-0.7995 -2.62563,-0.7995 -1.50033,0 -3.00072,-1.06605 -3.75087,0.2663 -0.75015,1.33254 -2.12551,4.13091 -2.25047,4.93041 -0.12516,0.7995 0.12452,1.1993 -0.12516,2.53177 -0.25,1.33255 -1.00024,3.73111 -1.75039,3.59787 -0.75018,-0.13299 -4.50102,-1.9988 -4.50102,-1.9988 l -8.62697,-8.39496 c 0,0 -0.49993,-1.46579 -2.62566,-2.26532 -2.12545,-0.7995 -2.12545,-1.19927 -5.00117,-1.19927 -2.87566,0 -1.12521,0 -6.75156,0.39989 -5.62629,0.39993 -7.7518,1.1993 -9.62721,1.46576 -1.87542,0.2663 -1.62536,1.06602 -4.37599,1.1993 -2.75063,0.13298 0.62512,0.93274 -4.75108,0.26629 -5.37629,-0.66625 -7.25171,-0.66625 -7.7518,-0.7995 -0.49989,-0.13363 -7.00161,-3.99759 -7.00161,-3.99759 0,0 -6.251471,0.39992 -7.001651,-1.33255 -0.750149,-1.73228 -1.250237,-1.59906 -1.250237,-3.1981 0,-1.599 -0.249997,-3.86432 -0.125157,-5.19686 0.125157,-1.33255 -1.12527,-1.599 0,-3.59787 1.125271,-1.99873 2.500601,-2.3985 2.875659,-3.06482 0.375248,-0.66625 2.500632,-7.595396 2.500632,-7.595396 0,0 -0.75018,-3.464588 -1.00024,-3.997566 -0.249997,-0.532784 -1.750389,-1.199299 -2.25054,-1.066054 -0.499899,0.133633 -6.001409,3.597832 -6.001409,3.597832 0,0 -0.375217,-1.9988 0.87521,-4.663854 1.2503,-2.665088 1.50036,-4.663887 2.12551,-5.996366 0.625182,-1.332544 1.750389,-2.931641 1.875419,-4.130843 0.125156,-1.199299 0.875241,-11.326541 0.875241,-11.326541 l -0.399679,-9.923417 c 0,0 -0.70726,-3.015195 -0.70726,-6.030358 0,-3.015195 0,-6.784189 0.353851,-12.437615 0.353852,-5.653458 0.707261,-7.537955 0.707261,-9.04552 0,-1.507565 -4.243593,-11.683751 -4.243593,-11.683751 0,0 0.353819,-2.261429 0,-6.030391 -0.353852,-3.768961 -1.768182,-7.9147894 -2.121844,-10.9299844 -0.353852,-3.0151951 -1.768182,-2.26142881 -0.70726,-8.2917866 1.060922,-6.030325 0.70726,-7.537955 1.768182,-9.799287 1.060922,-2.261428 1.060922,-2.261428 2.829072,-4.52276 1.768182,-2.261396 2.829041,-4.52276 2.829041,-4.52276 v -4.522793 l 4.318655,-6.596258"
       id="path1970"
       inkscape:export-xdpi="95.973488"
       inkscape:export-ydpi="95.973488" />
    <path
       style="fill:none;stroke:#4bc0dc;stroke-width:1.66927px;stroke-linecap:butt;stroke-linejoin:miter;stroke-opacity:1"
       d="m 225.94106,258.35364 -2.12544,2.53178 c 0,0 -1.00031,2.13204 -3.25091,2.66509 -2.2506,0.53278 -6.5015,0.79953 -6.5015,0.79953 l 0.24968,-1.33258 c 0,0 -5.75119,-2.3985 -8.25194,-2.3985 -2.50054,0 -4.50102,0.2663 -4.50102,0.2663 0,0 2.00048,1.06609 -1.50033,-0.2663 -3.50084,-1.33254 -4.00093,-1.33254 -6.00138,-2.66508 -2.00048,-1.33258 -4.25102,-2.39854 -4.25102,-2.39854 v -1.59906 c 0,0 -2.00044,0.26629 -2.75062,-1.33255 -0.75015,-1.59903 -0.4999,-1.33247 -1.5003,-3.73107 -1.00024,-2.39857 1.5003,-1.06602 -2.50063,-3.99757 -4.00093,-2.93158 -5.00117,-3.46462 -5.00117,-3.46462 l -3.00063,-2.93154 -3.75093,-3.46462 -2.7506,-2.13198 c 0,0 1.2503,-1.33258 -3.25078,-0.79957 -4.50101,0.53279 -7.75173,3.73111 -7.75173,3.73111 l -1.2503,1.86552 c 0,0 -0.25,1.33258 -2.50063,0.2663 -2.25048,-1.06602 -2.7506,-0.79957 -3.25069,-2.13204 -0.49993,-1.33255 -1.25033,-1.59907 -2.00048,-2.66509 -0.75015,-1.06602 -4.25099,-4.26412 -4.25099,-5.33014 0,-1.06603 -2.50056,-3.46456 -3.00072,-4.7971 -0.49989,-1.33255 -0.49989,-2.39857 -2.75062,-3.19807 -2.25054,-0.7995 -3.50078,-1.06605 -6.25141,-1.59903 -2.75069,-0.53279 -6.00138,0.26629 -8.50201,-0.53279 -2.50054,-0.7995 -5.50126,-0.7995 -5.50126,-0.7995 l -1.50029,-0.7995 -0.4999,-2.13204 1.5003,-1.86556 1.75045,-2.13204 c 0,0 2.00048,-1.33254 0.49993,-2.13204 -1.50033,-0.7995 0,-1.06602 -3.00072,-1.06602 -3.00063,0 -3.75084,0 -4.75108,0 -1.00024,0 -2.00048,-0.53279 -3.25072,2.39856 -1.2503,2.93154 -0.49989,3.46456 -2.75069,4.7971 -2.25047,1.33248 -6.00134,2.93154 -8.251883,3.46452 -2.250509,0.53279 -3.250749,-1.33248 -4.250989,1.33255 -1.00024,2.66512 -1.00024,6.12964 -1.00024,6.12964 0,0 2.25054,0.39993 -1.500297,2.13207 -3.750868,1.73228 -3.750868,1.73228 -3.750868,1.73228"
       id="path1972"
       inkscape:export-xdpi="95.973488"
       inkscape:export-ydpi="95.973488" />
    <path
       style="fill:none;stroke:#4bc0dc;stroke-width:1.28484275;stroke-linecap:butt;stroke-linejoin:miter;stroke-opacity:1"
       d="m 236.31925,168.27456 5.55967,3.04521 4.54358,-2.40543 6.68174,-4.00904 c 0,0 8.01809,-4.54358 9.88898,-3.20724 1.87089,1.33635 6.68173,4.27632 6.68173,4.27632 l 8.55262,-3.47451 c 0,0 1.60362,0 1.8709,-2.13815 0.26726,-2.13816 0.26726,-5.07812 0.26726,-5.07812 l 6.68173,-4.81086 4.27633,1.87089 13.08436,1.5655"
       id="path11"
       inkscape:export-filename="C:\Users\Kilimanjaro\Desktop\凤凰街道.png"
       inkscape:export-xdpi="96"
       inkscape:export-ydpi="96" />
  </g>
</svg>
